<?xml version="1.0" encoding="UTF-8" standalone="no"?>
<!-- Created with Inkscape (http://www.inkscape.org/) -->

<svg
   xmlns:dc="http://purl.org/dc/elements/1.1/"
   xmlns:cc="http://creativecommons.org/ns#"
   xmlns:rdf="http://www.w3.org/1999/02/22-rdf-syntax-ns#"
   xmlns:svg="http://www.w3.org/2000/svg"
   xmlns="http://www.w3.org/2000/svg"
   xmlns:sodipodi="http://sodipodi.sourceforge.net/DTD/sodipodi-0.dtd"
   xmlns:inkscape="http://www.inkscape.org/namespaces/inkscape"
   id="svg4058"
   version="1.1"
   inkscape:version="0.91 r13725"
   xml:space="preserve"
   width="952.63245"
   height="475.66391"
   viewBox="0 0 952.63245 475.66391"
   sodipodi:docname="fig3-first_trials_prefcong.svg"><metadata
     id="metadata4064"><rdf:RDF><cc:Work
         rdf:about=""><dc:format>image/svg+xml</dc:format><dc:type
           rdf:resource="http://purl.org/dc/dcmitype/StillImage" /><dc:title></dc:title></cc:Work></rdf:RDF></metadata><defs
     id="defs4062"><clipPath
       clipPathUnits="userSpaceOnUse"
       id="clipPath4074"><path
         d="m 0,3 7360,0 0,3527 L 0,3530 0,3 Z"
         id="path4076"
         inkscape:connector-curvature="0" /></clipPath><clipPath
       clipPathUnits="userSpaceOnUse"
       id="clipPath4174"><path
         d="m 599.801,548.551 3189,0 0,2790 -3189,0 0,-2790 z"
         id="path4176"
         inkscape:connector-curvature="0" /></clipPath><clipPath
       clipPathUnits="userSpaceOnUse"
       id="clipPath4210"><path
         d="m 0,3 7360,0 0,3527 L 0,3530 0,3 Z"
         id="path4212"
         inkscape:connector-curvature="0" /></clipPath><clipPath
       clipPathUnits="userSpaceOnUse"
       id="clipPath4252"><path
         d="m 4107.2,548.551 3189,0 0,2790 -3189,0 0,-2790 z"
         id="path4254"
         inkscape:connector-curvature="0" /></clipPath><clipPath
       clipPathUnits="userSpaceOnUse"
       id="clipPath4288"><path
         d="m 0,3 7360,0 0,3527 L 0,3530 0,3 Z"
         id="path4290"
         inkscape:connector-curvature="0" /></clipPath></defs><sodipodi:namedview
     pagecolor="#ffffff"
     bordercolor="#666666"
     borderopacity="1"
     objecttolerance="10"
     gridtolerance="10"
     guidetolerance="10"
     inkscape:pageopacity="0"
     inkscape:pageshadow="2"
     inkscape:window-width="1880"
     inkscape:window-height="905"
     id="namedview4060"
     showgrid="false"
     inkscape:zoom="0.9983453"
     inkscape:cx="69.448778"
     inkscape:cy="230.19387"
     inkscape:window-x="1092"
     inkscape:window-y="421"
     inkscape:window-maximized="0"
     inkscape:current-layer="layer3"
     borderlayer="true"
     fit-margin-top="10"
     fit-margin-left="10"
     fit-margin-right="10"
     fit-margin-bottom="10" /><g
     id="g4066"
     inkscape:groupmode="layer"
     inkscape:label="ink_ext_XXXXXX"
     transform="matrix(1.25,0,0,-1.25,22.632462,466.09505)"><g
       id="g4068"
       transform="scale(0.1,0.1)"><g
         id="g4070"><g
           id="g4072"
           clip-path="url(#clipPath4074)"><path
             d="m 0,3.44922 7367.79,0 0,3533.08998 -7367.79,0 L 0,3.44922 Z"
             style="fill:#ffffff;fill-opacity:1;fill-rule:nonzero;stroke:none"
             id="path4078"
             inkscape:connector-curvature="0" /><path
             d="m 599.793,548.543 3188.58,0 0,2790 -3188.58,0 0,-2790 z"
             style="fill:#ffffff;fill-opacity:1;fill-rule:nonzero;stroke:none"
             id="path4080"
             inkscape:connector-curvature="0" /><path
             d="m 1396.94,548.543 0,0"
             style="fill:#262626;fill-opacity:1;fill-rule:nonzero;stroke:none"
             id="path4082"
             inkscape:connector-curvature="0" /><path
             d="m 1396.94,548.543 0,0"
             style="fill:none;stroke:#262626;stroke-width:16;stroke-linecap:butt;stroke-linejoin:round;stroke-miterlimit:10;stroke-dasharray:none;stroke-opacity:1"
             id="path4084"
             inkscape:connector-curvature="0" /><g
             id="g4086"
             transform="scale(10,10)" /><path
             d="m 2991.22,548.543 0,0"
             style="fill:#262626;fill-opacity:1;fill-rule:nonzero;stroke:none"
             id="path4092"
             inkscape:connector-curvature="0" /><path
             d="m 2991.22,548.543 0,0"
             style="fill:none;stroke:#262626;stroke-width:16;stroke-linecap:butt;stroke-linejoin:round;stroke-miterlimit:10;stroke-dasharray:none;stroke-opacity:1"
             id="path4094"
             inkscape:connector-curvature="0" /><g
             id="g4096"
             transform="scale(10,10)" /><path
             d="m 599.793,548.543 0,0"
             style="fill:#262626;fill-opacity:1;fill-rule:nonzero;stroke:none"
             id="path4106"
             inkscape:connector-curvature="0" /><path
             d="m 599.793,548.543 0,0"
             style="fill:none;stroke:#262626;stroke-width:16;stroke-linecap:butt;stroke-linejoin:round;stroke-miterlimit:10;stroke-dasharray:none;stroke-opacity:1"
             id="path4108"
             inkscape:connector-curvature="0" /><g
             id="g4110"
             transform="scale(10,10)" /><path
             d="m 599.793,1106.54 0,0"
             style="fill:#262626;fill-opacity:1;fill-rule:nonzero;stroke:none"
             id="path4116"
             inkscape:connector-curvature="0" /><path
             d="m 599.793,1106.54 0,0"
             style="fill:none;stroke:#262626;stroke-width:16;stroke-linecap:butt;stroke-linejoin:round;stroke-miterlimit:10;stroke-dasharray:none;stroke-opacity:1"
             id="path4118"
             inkscape:connector-curvature="0" /><g
             id="g4120"
             transform="scale(10,10)" /><path
             d="m 599.793,1664.54 0,0"
             style="fill:#262626;fill-opacity:1;fill-rule:nonzero;stroke:none"
             id="path4126"
             inkscape:connector-curvature="0" /><path
             d="m 599.793,1664.54 0,0"
             style="fill:none;stroke:#262626;stroke-width:16;stroke-linecap:butt;stroke-linejoin:round;stroke-miterlimit:10;stroke-dasharray:none;stroke-opacity:1"
             id="path4128"
             inkscape:connector-curvature="0" /><g
             id="g4130"
             transform="scale(10,10)" /><path
             d="m 599.793,2222.54 0,0"
             style="fill:#262626;fill-opacity:1;fill-rule:nonzero;stroke:none"
             id="path4136"
             inkscape:connector-curvature="0" /><path
             d="m 599.793,2222.54 0,0"
             style="fill:none;stroke:#262626;stroke-width:16;stroke-linecap:butt;stroke-linejoin:round;stroke-miterlimit:10;stroke-dasharray:none;stroke-opacity:1"
             id="path4138"
             inkscape:connector-curvature="0" /><g
             id="g4140"
             transform="scale(10,10)" /><path
             d="m 599.793,2780.54 0,0"
             style="fill:#262626;fill-opacity:1;fill-rule:nonzero;stroke:none"
             id="path4146"
             inkscape:connector-curvature="0" /><path
             d="m 599.793,2780.54 0,0"
             style="fill:none;stroke:#262626;stroke-width:16;stroke-linecap:butt;stroke-linejoin:round;stroke-miterlimit:10;stroke-dasharray:none;stroke-opacity:1"
             id="path4148"
             inkscape:connector-curvature="0" /><g
             id="g4150"
             transform="scale(10,10)" /><path
             d="m 599.793,3338.54 0,0"
             style="fill:#262626;fill-opacity:1;fill-rule:nonzero;stroke:none"
             id="path4156"
             inkscape:connector-curvature="0" /><path
             d="m 599.793,3338.54 0,0"
             style="fill:none;stroke:#262626;stroke-width:16;stroke-linecap:butt;stroke-linejoin:round;stroke-miterlimit:10;stroke-dasharray:none;stroke-opacity:1"
             id="path4158"
             inkscape:connector-curvature="0" /><g
             id="g4160"
             transform="scale(10,10)" /></g></g><g
         id="g4170"><g
           id="g4172"
           clip-path="url(#clipPath4174)"><path
             d="m 1396.94,1303.49 c 16.75,0 32.82,6.66 44.67,18.51 11.84,11.84 18.5,27.91 18.5,44.66 0,16.75 -6.66,32.82 -18.5,44.66 -11.85,11.85 -27.92,18.51 -44.67,18.51 -16.75,0 -32.82,-6.66 -44.67,-18.51 -11.84,-11.84 -18.5,-27.91 -18.5,-44.66 0,-16.75 6.66,-32.82 18.5,-44.66 11.85,-11.85 27.92,-18.51 44.67,-18.51"
             style="fill:#f0944d;fill-opacity:1;fill-rule:nonzero;stroke:none"
             id="path4178"
             inkscape:connector-curvature="0" /><path
             d="m 1396.94,1303.49 c 16.75,0 32.82,6.66 44.67,18.51 11.84,11.84 18.5,27.91 18.5,44.66 0,16.75 -6.66,32.82 -18.5,44.66 -11.85,11.85 -27.92,18.51 -44.67,18.51 -16.75,0 -32.82,-6.66 -44.67,-18.51 -11.84,-11.84 -18.5,-27.91 -18.5,-44.66 0,-16.75 6.66,-32.82 18.5,-44.66 11.85,-11.85 27.92,-18.51 44.67,-18.51 z"
             style="fill:none;stroke:#f0944d;stroke-width:37.79999924;stroke-linecap:butt;stroke-linejoin:round;stroke-miterlimit:10;stroke-dasharray:none;stroke-opacity:1"
             id="path4180"
             inkscape:connector-curvature="0" /><path
             d="m 2991.22,2049.46 c 16.75,0 32.82,6.66 44.67,18.5 11.84,11.85 18.5,27.92 18.5,44.67 0,16.75 -6.66,32.82 -18.5,44.67 -11.85,11.84 -27.92,18.5 -44.67,18.5 -16.75,0 -32.82,-6.66 -44.67,-18.5 -11.84,-11.85 -18.5,-27.92 -18.5,-44.67 0,-16.75 6.66,-32.82 18.5,-44.67 11.85,-11.84 27.92,-18.5 44.67,-18.5"
             style="fill:#f0944d;fill-opacity:1;fill-rule:nonzero;stroke:none"
             id="path4182"
             inkscape:connector-curvature="0" /><path
             d="m 2991.22,2049.46 c 16.75,0 32.82,6.66 44.67,18.5 11.84,11.85 18.5,27.92 18.5,44.67 0,16.75 -6.66,32.82 -18.5,44.67 -11.85,11.84 -27.92,18.5 -44.67,18.5 -16.75,0 -32.82,-6.66 -44.67,-18.5 -11.84,-11.85 -18.5,-27.92 -18.5,-44.67 0,-16.75 6.66,-32.82 18.5,-44.67 11.85,-11.84 27.92,-18.5 44.67,-18.5 z"
             style="fill:none;stroke:#f0944d;stroke-width:37.79999924;stroke-linecap:butt;stroke-linejoin:round;stroke-miterlimit:10;stroke-dasharray:none;stroke-opacity:1"
             id="path4184"
             inkscape:connector-curvature="0" /><path
             d="m 1396.94,1366.66 1594.28,745.97"
             style="fill:none;stroke:#f0944d;stroke-width:50.40000153;stroke-linecap:round;stroke-linejoin:round;stroke-miterlimit:10;stroke-dasharray:none;stroke-opacity:1"
             id="path4186"
             inkscape:connector-curvature="0" /><path
             d="m 1396.94,1212.83 0,300.51"
             style="fill:none;stroke:#f0944d;stroke-width:50.40000153;stroke-linecap:round;stroke-linejoin:round;stroke-miterlimit:10;stroke-dasharray:none;stroke-opacity:1"
             id="path4188"
             inkscape:connector-curvature="0" /><path
             d="m 2991.22,1901.27 0,415.58"
             style="fill:none;stroke:#f0944d;stroke-width:50.40000153;stroke-linecap:round;stroke-linejoin:round;stroke-miterlimit:10;stroke-dasharray:none;stroke-opacity:1"
             id="path4190"
             inkscape:connector-curvature="0" /><path
             d="m 1396.94,2202.3 c 16.75,0 32.82,6.66 44.67,18.5 11.84,11.85 18.5,27.92 18.5,44.67 0,16.75 -6.66,32.82 -18.5,44.67 -11.85,11.84 -27.92,18.5 -44.67,18.5 -16.75,0 -32.82,-6.66 -44.67,-18.5 -11.84,-11.85 -18.5,-27.92 -18.5,-44.67 0,-16.75 6.66,-32.82 18.5,-44.67 11.85,-11.84 27.92,-18.5 44.67,-18.5"
             style="fill:#7bb274;fill-opacity:1;fill-rule:nonzero;stroke:none"
             id="path4192"
             inkscape:connector-curvature="0" /><path
             d="m 1396.94,2202.3 c 16.75,0 32.82,6.66 44.67,18.5 11.84,11.85 18.5,27.92 18.5,44.67 0,16.75 -6.66,32.82 -18.5,44.67 -11.85,11.84 -27.92,18.5 -44.67,18.5 -16.75,0 -32.82,-6.66 -44.67,-18.5 -11.84,-11.85 -18.5,-27.92 -18.5,-44.67 0,-16.75 6.66,-32.82 18.5,-44.67 11.85,-11.84 27.92,-18.5 44.67,-18.5 z"
             style="fill:none;stroke:#7bb274;stroke-width:37.79999924;stroke-linecap:butt;stroke-linejoin:round;stroke-miterlimit:10;stroke-dasharray:none;stroke-opacity:1"
             id="path4194"
             inkscape:connector-curvature="0" /><path
             d="m 2991.22,2841.59 c 16.75,0 32.82,6.66 44.67,18.5 11.84,11.85 18.5,27.92 18.5,44.67 0,16.75 -6.66,32.82 -18.5,44.67 -11.85,11.84 -27.92,18.5 -44.67,18.5 -16.75,0 -32.82,-6.66 -44.67,-18.5 -11.84,-11.85 -18.5,-27.92 -18.5,-44.67 0,-16.75 6.66,-32.82 18.5,-44.67 11.85,-11.84 27.92,-18.5 44.67,-18.5"
             style="fill:#7bb274;fill-opacity:1;fill-rule:nonzero;stroke:none"
             id="path4196"
             inkscape:connector-curvature="0" /><path
             d="m 2991.22,2841.59 c 16.75,0 32.82,6.66 44.67,18.5 11.84,11.85 18.5,27.92 18.5,44.67 0,16.75 -6.66,32.82 -18.5,44.67 -11.85,11.84 -27.92,18.5 -44.67,18.5 -16.75,0 -32.82,-6.66 -44.67,-18.5 -11.84,-11.85 -18.5,-27.92 -18.5,-44.67 0,-16.75 6.66,-32.82 18.5,-44.67 11.85,-11.84 27.92,-18.5 44.67,-18.5 z"
             style="fill:none;stroke:#7bb274;stroke-width:37.79999924;stroke-linecap:butt;stroke-linejoin:round;stroke-miterlimit:10;stroke-dasharray:none;stroke-opacity:1"
             id="path4198"
             inkscape:connector-curvature="0" /><path
             d="m 1396.94,2265.47 1594.28,639.29"
             style="fill:none;stroke:#7bb274;stroke-width:50.40000153;stroke-linecap:round;stroke-linejoin:round;stroke-miterlimit:10;stroke-dasharray:none;stroke-opacity:1"
             id="path4200"
             inkscape:connector-curvature="0" /><path
             d="m 1396.94,2070.36 0,401.02"
             style="fill:none;stroke:#7bb274;stroke-width:50.40000153;stroke-linecap:round;stroke-linejoin:round;stroke-miterlimit:10;stroke-dasharray:none;stroke-opacity:1"
             id="path4202"
             inkscape:connector-curvature="0" /><path
             d="m 2991.22,2818.57 0,174.7"
             style="fill:none;stroke:#7bb274;stroke-width:50.40000153;stroke-linecap:round;stroke-linejoin:round;stroke-miterlimit:10;stroke-dasharray:none;stroke-opacity:1"
             id="path4204"
             inkscape:connector-curvature="0" /></g></g><g
         id="g4206"><g
           id="g4208"
           clip-path="url(#clipPath4210)"><path
             d="m 599.793,548.543 3188.577,0"
             style="fill:none;stroke:#262626;stroke-width:12.5;stroke-linecap:square;stroke-linejoin:miter;stroke-miterlimit:10;stroke-dasharray:none;stroke-opacity:1"
             id="path4214"
             inkscape:connector-curvature="0" /><path
             d="m 599.793,548.543 0,2789.997"
             style="fill:none;stroke:#262626;stroke-width:12.5;stroke-linecap:square;stroke-linejoin:miter;stroke-miterlimit:10;stroke-dasharray:none;stroke-opacity:1"
             id="path4216"
             inkscape:connector-curvature="0" /><path
             d="m 743.793,3136.01 319.997,0"
             style="fill:none;stroke:#ffffff;stroke-width:50.40000153;stroke-linecap:round;stroke-linejoin:round;stroke-miterlimit:10;stroke-dasharray:none;stroke-opacity:1"
             id="path4218"
             inkscape:connector-curvature="0" /><path
             d="m 743.793,2909.61 319.997,0"
             style="fill:none;stroke:#ffffff;stroke-width:50.40000153;stroke-linecap:round;stroke-linejoin:round;stroke-miterlimit:10;stroke-dasharray:none;stroke-opacity:1"
             id="path4220"
             inkscape:connector-curvature="0" /><path
             d="m 4107.22,548.543 3188.57,0 0,2790 -3188.57,0 0,-2790 z"
             style="fill:#ffffff;fill-opacity:1;fill-rule:nonzero;stroke:none"
             id="path4222"
             inkscape:connector-curvature="0" /><path
             d="m 4904.37,548.543 0,0"
             style="fill:#262626;fill-opacity:1;fill-rule:nonzero;stroke:none"
             id="path4224"
             inkscape:connector-curvature="0" /><path
             d="m 4904.37,548.543 0,0"
             style="fill:none;stroke:#262626;stroke-width:16;stroke-linecap:butt;stroke-linejoin:round;stroke-miterlimit:10;stroke-dasharray:none;stroke-opacity:1"
             id="path4226"
             inkscape:connector-curvature="0" /><g
             id="g4228"
             transform="scale(10,10)" /><path
             d="m 6498.65,548.543 0,0"
             style="fill:#262626;fill-opacity:1;fill-rule:nonzero;stroke:none"
             id="path4234"
             inkscape:connector-curvature="0" /><path
             d="m 6498.65,548.543 0,0"
             style="fill:none;stroke:#262626;stroke-width:16;stroke-linecap:butt;stroke-linejoin:round;stroke-miterlimit:10;stroke-dasharray:none;stroke-opacity:1"
             id="path4236"
             inkscape:connector-curvature="0" /><g
             id="g4238"
             transform="scale(10,10)" /></g></g><g
         id="g4248"><g
           id="g4250"
           clip-path="url(#clipPath4252)"><path
             d="m 4904.37,1133.75 c 16.75,0 32.82,6.66 44.67,18.5 11.84,11.85 18.5,27.92 18.5,44.67 0,16.75 -6.66,32.82 -18.5,44.67 -11.85,11.84 -27.92,18.5 -44.67,18.5 -16.75,0 -32.82,-6.66 -44.67,-18.5 -11.84,-11.85 -18.5,-27.92 -18.5,-44.67 0,-16.75 6.66,-32.82 18.5,-44.67 11.85,-11.84 27.92,-18.5 44.67,-18.5"
             style="fill:#f0944d;fill-opacity:1;fill-rule:nonzero;stroke:none"
             id="path4256"
             inkscape:connector-curvature="0" /><path
             d="m 4904.37,1133.75 c 16.75,0 32.82,6.66 44.67,18.5 11.84,11.85 18.5,27.92 18.5,44.67 0,16.75 -6.66,32.82 -18.5,44.67 -11.85,11.84 -27.92,18.5 -44.67,18.5 -16.75,0 -32.82,-6.66 -44.67,-18.5 -11.84,-11.85 -18.5,-27.92 -18.5,-44.67 0,-16.75 6.66,-32.82 18.5,-44.67 11.85,-11.84 27.92,-18.5 44.67,-18.5 z"
             style="fill:none;stroke:#f0944d;stroke-width:37.79999924;stroke-linecap:butt;stroke-linejoin:round;stroke-miterlimit:10;stroke-dasharray:none;stroke-opacity:1"
             id="path4258"
             inkscape:connector-curvature="0" /><path
             d="m 6498.65,1527.42 c 16.75,0 32.82,6.66 44.67,18.51 11.84,11.84 18.5,27.91 18.5,44.66 0,16.75 -6.66,32.82 -18.5,44.66 -11.85,11.85 -27.92,18.51 -44.67,18.51 -16.75,0 -32.82,-6.66 -44.67,-18.51 -11.84,-11.84 -18.5,-27.91 -18.5,-44.66 0,-16.75 6.66,-32.82 18.5,-44.66 11.85,-11.85 27.92,-18.51 44.67,-18.51"
             style="fill:#f0944d;fill-opacity:1;fill-rule:nonzero;stroke:none"
             id="path4260"
             inkscape:connector-curvature="0" /><path
             d="m 6498.65,1527.42 c 16.75,0 32.82,6.66 44.67,18.51 11.84,11.84 18.5,27.91 18.5,44.66 0,16.75 -6.66,32.82 -18.5,44.66 -11.85,11.85 -27.92,18.51 -44.67,18.51 -16.75,0 -32.82,-6.66 -44.67,-18.51 -11.84,-11.84 -18.5,-27.91 -18.5,-44.66 0,-16.75 6.66,-32.82 18.5,-44.66 11.85,-11.85 27.92,-18.51 44.67,-18.51 z"
             style="fill:none;stroke:#f0944d;stroke-width:37.79999924;stroke-linecap:butt;stroke-linejoin:round;stroke-miterlimit:10;stroke-dasharray:none;stroke-opacity:1"
             id="path4262"
             inkscape:connector-curvature="0" /><path
             d="m 4904.37,1196.92 1594.28,393.67"
             style="fill:none;stroke:#f0944d;stroke-width:50.40000153;stroke-linecap:round;stroke-linejoin:round;stroke-miterlimit:10;stroke-dasharray:none;stroke-opacity:1"
             id="path4264"
             inkscape:connector-curvature="0" /><path
             d="m 4904.37,1045.26 0,297.54"
             style="fill:none;stroke:#f0944d;stroke-width:50.40000153;stroke-linecap:round;stroke-linejoin:round;stroke-miterlimit:10;stroke-dasharray:none;stroke-opacity:1"
             id="path4266"
             inkscape:connector-curvature="0" /><path
             d="m 6498.65,1385.08 0,396.84"
             style="fill:none;stroke:#f0944d;stroke-width:50.40000153;stroke-linecap:round;stroke-linejoin:round;stroke-miterlimit:10;stroke-dasharray:none;stroke-opacity:1"
             id="path4268"
             inkscape:connector-curvature="0" /><path
             d="m 4904.37,2298.87 c 16.75,0 32.82,6.66 44.67,18.51 11.84,11.84 18.5,27.91 18.5,44.66 0,16.75 -6.66,32.82 -18.5,44.67 -11.85,11.84 -27.92,18.5 -44.67,18.5 -16.75,0 -32.82,-6.66 -44.67,-18.5 -11.84,-11.85 -18.5,-27.92 -18.5,-44.67 0,-16.75 6.66,-32.82 18.5,-44.66 11.85,-11.85 27.92,-18.51 44.67,-18.51"
             style="fill:#7bb274;fill-opacity:1;fill-rule:nonzero;stroke:none"
             id="path4270"
             inkscape:connector-curvature="0" /><path
             d="m 4904.37,2298.87 c 16.75,0 32.82,6.66 44.67,18.51 11.84,11.84 18.5,27.91 18.5,44.66 0,16.75 -6.66,32.82 -18.5,44.67 -11.85,11.84 -27.92,18.5 -44.67,18.5 -16.75,0 -32.82,-6.66 -44.67,-18.5 -11.84,-11.85 -18.5,-27.92 -18.5,-44.67 0,-16.75 6.66,-32.82 18.5,-44.66 11.85,-11.85 27.92,-18.51 44.67,-18.51 z"
             style="fill:none;stroke:#7bb274;stroke-width:37.79999924;stroke-linecap:butt;stroke-linejoin:round;stroke-miterlimit:10;stroke-dasharray:none;stroke-opacity:1"
             id="path4272"
             inkscape:connector-curvature="0" /><path
             d="m 6498.65,2548.02 c 16.75,0 32.82,6.66 44.67,18.5 11.84,11.85 18.5,27.92 18.5,44.67 0,16.75 -6.66,32.82 -18.5,44.67 -11.85,11.84 -27.92,18.5 -44.67,18.5 -16.75,0 -32.82,-6.66 -44.67,-18.5 -11.84,-11.85 -18.5,-27.92 -18.5,-44.67 0,-16.75 6.66,-32.82 18.5,-44.67 11.85,-11.84 27.92,-18.5 44.67,-18.5"
             style="fill:#7bb274;fill-opacity:1;fill-rule:nonzero;stroke:none"
             id="path4274"
             inkscape:connector-curvature="0" /><path
             d="m 6498.65,2548.02 c 16.75,0 32.82,6.66 44.67,18.5 11.84,11.85 18.5,27.92 18.5,44.67 0,16.75 -6.66,32.82 -18.5,44.67 -11.85,11.84 -27.92,18.5 -44.67,18.5 -16.75,0 -32.82,-6.66 -44.67,-18.5 -11.84,-11.85 -18.5,-27.92 -18.5,-44.67 0,-16.75 6.66,-32.82 18.5,-44.67 11.85,-11.84 27.92,-18.5 44.67,-18.5 z"
             style="fill:none;stroke:#7bb274;stroke-width:37.79999924;stroke-linecap:butt;stroke-linejoin:round;stroke-miterlimit:10;stroke-dasharray:none;stroke-opacity:1"
             id="path4276"
             inkscape:connector-curvature="0" /><path
             d="m 4904.37,2362.04 1594.28,249.15"
             style="fill:none;stroke:#7bb274;stroke-width:50.40000153;stroke-linecap:round;stroke-linejoin:round;stroke-miterlimit:10;stroke-dasharray:none;stroke-opacity:1"
             id="path4278"
             inkscape:connector-curvature="0" /><path
             d="m 4904.37,2142.83 0,461.5"
             style="fill:none;stroke:#7bb274;stroke-width:50.40000153;stroke-linecap:round;stroke-linejoin:round;stroke-miterlimit:10;stroke-dasharray:none;stroke-opacity:1"
             id="path4280"
             inkscape:connector-curvature="0" /><path
             d="m 6498.65,2493.43 0,228.62"
             style="fill:none;stroke:#7bb274;stroke-width:50.40000153;stroke-linecap:round;stroke-linejoin:round;stroke-miterlimit:10;stroke-dasharray:none;stroke-opacity:1"
             id="path4282"
             inkscape:connector-curvature="0" /></g></g><g
         id="g4284"><g
           id="g4286"
           clip-path="url(#clipPath4288)"><path
             d="m 4107.22,548.543 3188.57,0"
             style="fill:none;stroke:#262626;stroke-width:12.5;stroke-linecap:square;stroke-linejoin:miter;stroke-miterlimit:10;stroke-dasharray:none;stroke-opacity:1"
             id="path4292"
             inkscape:connector-curvature="0" /><path
             d="m 4319.79,3252.54 360,0 0,126 -360,0 0,-126 z"
             style="fill:#7bb274;fill-opacity:1;fill-rule:nonzero;stroke:none"
             id="path4294"
             inkscape:connector-curvature="0" /><path
             d="m 4319.79,3252.54 360,0 0,126 -360,0 0,-126 z"
             style="fill:none;stroke:#7bb274;stroke-width:4.80000019;stroke-linecap:butt;stroke-linejoin:miter;stroke-miterlimit:10;stroke-dasharray:none;stroke-opacity:1"
             id="path4296"
             inkscape:connector-curvature="0" /><g
             id="g4298"
             transform="scale(10,10)" /><path
             d="m 4319.79,2982.54 360,0 0,126 -360,0 0,-126 z"
             style="fill:#f0944d;fill-opacity:1;fill-rule:nonzero;stroke:none"
             id="path4320"
             inkscape:connector-curvature="0" /><path
             d="m 4319.79,2982.54 360,0 0,126 -360,0 0,-126 z"
             style="fill:none;stroke:#f0944d;stroke-width:4.80000019;stroke-linecap:butt;stroke-linejoin:miter;stroke-miterlimit:10;stroke-dasharray:none;stroke-opacity:1"
             id="path4322"
             inkscape:connector-curvature="0" /><g
             id="g4324"
             transform="scale(10,10)" /></g></g></g></g><g
     inkscape:groupmode="layer"
     id="layer3"
     inkscape:label="text"
     style="display:inline"
     transform="translate(22.632462,24.845047)"><text
       style="font-variant:normal;font-weight:normal;font-size:22.5px;font-family:Arial;-inkscape-font-specification:Arial;writing-mode:lr-tb;fill:#262626;fill-opacity:1;fill-rule:nonzero;stroke:none"
       id="text4308"
       x="833.83264"
       y="33.568748"><tspan
         x="833.83264 833.83264 833.83264 833.83264 848.67053"
         y="33.568748 33.568748 33.568748 33.568748"
         sodipodi:role="line"
         id="tspan4310">   &gt;</tspan></text>
<text
       transform="matrix(1.25,0,0,1.25,117.17575,400.9985)"
       style="font-variant:normal;font-weight:normal;font-size:16px;font-family:Arial;-inkscape-font-specification:Arial;writing-mode:lr-tb;fill:#262626;fill-opacity:1;fill-rule:nonzero;stroke:none"
       id="text4088"><tspan
         x="0 8.8984413 17.796883 25.796883 33.796883 38.242199 47.14064 56.039082 64.937523 73.83596 77.390648 86.289093"
         y="0"
         sodipodi:role="line"
         id="tspan4090">Less popular</tspan></text>
<text
       transform="matrix(1.25,0,0,1.25,314.80125,400.9985)"
       style="font-variant:normal;font-weight:normal;font-size:16px;font-family:Arial;-inkscape-font-specification:Arial;writing-mode:lr-tb;fill:#262626;fill-opacity:1;fill-rule:nonzero;stroke:none"
       id="text4098"><tspan
         x="0 13.328 22.226442 27.554441 36.452885 40.898197 49.796638 58.69508 67.593521 76.491966 80.046646 88.945091"
         y="0"
         sodipodi:role="line"
         id="tspan4100">More popular</tspan></text>
<text
       transform="matrix(1.25,0,0,1.25,245.539,427.34612)"
       style="font-variant:normal;font-weight:normal;font-size:17.60000038px;font-family:Arial;-inkscape-font-specification:Arial;writing-mode:lr-tb;fill:#262626;fill-opacity:1;fill-rule:nonzero;stroke:none"
       id="text4102"><tspan
         x="0 11.755851 21.558199 30.370699 34.28632 44.08828"
         y="0"
         sodipodi:role="line"
         id="tspan4104">Social</tspan></text>
<text
       transform="matrix(1.25,0,0,1.25,34.939,377.84812)"
       style="font-variant:normal;font-weight:normal;font-size:16px;font-family:Arial;-inkscape-font-specification:Arial;writing-mode:lr-tb;fill:#262626;fill-opacity:1;fill-rule:nonzero;stroke:none"
       id="text4112"><tspan
         x="0 8.8984385 13.34375"
         y="0"
         sodipodi:role="line"
         id="tspan4114">0.0</tspan></text>
<text
       transform="matrix(1.25,0,0,1.25,35.036625,308.09875)"
       style="font-variant:normal;font-weight:normal;font-size:16px;font-family:Arial;-inkscape-font-specification:Arial;writing-mode:lr-tb;fill:#262626;fill-opacity:1;fill-rule:nonzero;stroke:none"
       id="text4122"><tspan
         x="0 8.8984385 13.34375"
         y="0"
         sodipodi:role="line"
         id="tspan4124">0.2</tspan></text>
<text
       transform="matrix(1.25,0,0,1.25,34.9585,238.34875)"
       style="font-variant:normal;font-weight:normal;font-size:16px;font-family:Arial;-inkscape-font-specification:Arial;writing-mode:lr-tb;fill:#262626;fill-opacity:1;fill-rule:nonzero;stroke:none"
       id="text4132"><tspan
         x="0 8.8984385 13.34375"
         y="0"
         sodipodi:role="line"
         id="tspan4134">0.4</tspan></text>
<text
       transform="matrix(1.25,0,0,1.25,34.899875,168.59875)"
       style="font-variant:normal;font-weight:normal;font-size:16px;font-family:Arial;-inkscape-font-specification:Arial;writing-mode:lr-tb;fill:#262626;fill-opacity:1;fill-rule:nonzero;stroke:none"
       id="text4142"><tspan
         x="0 8.8984385 13.34375"
         y="0"
         sodipodi:role="line"
         id="tspan4144">0.6</tspan></text>
<text
       transform="matrix(1.25,0,0,1.25,34.860875,98.84875)"
       style="font-variant:normal;font-weight:normal;font-size:16px;font-family:Arial;-inkscape-font-specification:Arial;writing-mode:lr-tb;fill:#262626;fill-opacity:1;fill-rule:nonzero;stroke:none"
       id="text4152"><tspan
         x="0 8.8984385 13.34375"
         y="0"
         sodipodi:role="line"
         id="tspan4154">0.8</tspan></text>
<text
       transform="matrix(1.25,0,0,1.25,36.286625,29.09875)"
       style="font-variant:normal;font-weight:normal;font-size:16px;font-family:Arial;-inkscape-font-specification:Arial;writing-mode:lr-tb;fill:#262626;fill-opacity:1;fill-rule:nonzero;stroke:none"
       id="text4162"><tspan
         x="0 8.8984385 13.34375"
         y="0"
         sodipodi:role="line"
         id="tspan4164">1.0</tspan></text>
<text
       transform="matrix(0,-1.25,1.25,0,24.138125,260.66125)"
       style="font-variant:normal;font-weight:normal;font-size:17.60000038px;font-family:Arial;-inkscape-font-specification:Arial;writing-mode:lr-tb;fill:#262626;fill-opacity:1;fill-rule:nonzero;stroke:none"
       id="text4166"><tspan
         x="0 12.728123 22.530472 27.427347 31.342972 41.145317 46.041805 54.854305 64.656654 70.525803 76.39534 86.197304 95.009804"
         y="0"
         sodipodi:role="line"
         id="tspan4168">Ratio correct</tspan></text>
<text
       transform="matrix(1.25,0,0,1.25,555.605,400.9985)"
       style="font-variant:normal;font-weight:normal;font-size:16px;font-family:Arial;-inkscape-font-specification:Arial;writing-mode:lr-tb;fill:#262626;fill-opacity:1;fill-rule:nonzero;stroke:none"
       id="text4230"><tspan
         x="0 8.8984413 17.796883 25.796883 33.796883 38.242199 47.14064 56.039082 64.937523 73.83596 77.390648 86.289093"
         y="0"
         sodipodi:role="line"
         id="tspan4232">Less popular</tspan></text>
<text
       transform="matrix(1.25,0,0,1.25,753.23,400.9985)"
       style="font-variant:normal;font-weight:normal;font-size:16px;font-family:Arial;-inkscape-font-specification:Arial;writing-mode:lr-tb;fill:#262626;fill-opacity:1;fill-rule:nonzero;stroke:none"
       id="text4240"><tspan
         x="0 13.328 22.226442 27.554441 36.452885 40.898197 49.796638 58.69508 67.593521 76.491966 80.046646 88.945091"
         y="0"
         sodipodi:role="line"
         id="tspan4242">More popular</tspan></text>
<text
       transform="matrix(1.25,0,0,1.25,662.26862,427.34612)"
       style="font-variant:normal;font-weight:normal;font-size:17.60000038px;font-family:Arial;-inkscape-font-specification:Arial;writing-mode:lr-tb;fill:#262626;fill-opacity:1;fill-rule:nonzero;stroke:none"
       id="text4244"><tspan
         x="0 12.728148 22.530495 32.332455 38.201992 47.014492 56.816452 65.628952 69.544991 79.346947"
         y="0"
         sodipodi:role="line"
         id="tspan4246">Non-social</tspan></text>
<text
       transform="matrix(1.25,0,0,1.25,820.59125,67.31875)"
       style="font-variant:normal;font-weight:normal;font-size:18px;font-family:Arial;-inkscape-font-specification:Arial;writing-mode:lr-tb;fill:#262626;fill-opacity:1;fill-rule:nonzero;stroke:none"
       id="text4330"><tspan
         x="0"
         y="0"
         id="tspan4332">∆</tspan></text>
<text
       style="font-variant:normal;font-weight:normal;font-size:22.5px;font-family:Arial;-inkscape-font-specification:Arial;writing-mode:lr-tb;fill:#262626;fill-opacity:1;fill-rule:nonzero;stroke:none"
       id="text4334"
       x="835.33386"
       y="67.318748"><tspan
         x="835.33386 850.17224"
         y="67.318748"
         sodipodi:role="line"
         id="tspan4336"><tspan
   style="font-style:italic;font-variant:normal;font-weight:normal;font-stretch:normal;font-family:'Times New Roman';-inkscape-font-specification:'Times New Roman,  Italic'"
   id="tspan4427">v</tspan>&lt;</tspan></text>
<text
       transform="matrix(1.25,0,0,1.25,871.85338,67.31875)"
       style="font-variant:normal;font-weight:normal;font-size:18px;font-family:Arial;-inkscape-font-specification:Arial;writing-mode:lr-tb;fill:#262626;fill-opacity:1;fill-rule:nonzero;stroke:none"
       id="text4338"><tspan
         x="0"
         y="0"
         id="tspan4340">0</tspan></text>
<text
       transform="matrix(1.25,0,0,1.25,883.10338,67.31875)"
       style="font-variant:normal;font-weight:normal;font-size:18px;font-family:Arial;-inkscape-font-specification:Arial;writing-mode:lr-tb;fill:#262626;fill-opacity:1;fill-rule:nonzero;stroke:none"
       id="text4342"><tspan
         x="0"
         y="0"
         id="tspan4344">)</tspan></text>
<text
       transform="matrix(1.25,0,0,1.25,602.97375,33.56875)"
       style="font-variant:normal;font-weight:normal;font-size:18px;font-family:Arial;-inkscape-font-specification:Arial;writing-mode:lr-tb;fill:#262626;fill-opacity:1;fill-rule:nonzero;stroke:none"
       id="text4300"><tspan
         x="0 12.006 22.01693 32.02747 38.021469 48.032398 58.042938 63.044106 73.054642 79.048645 89.059578 94.060349 104.07128 110.06528 120.07582 130.08675 139.08675 149.09729 154.09845"
         y="0"
         sodipodi:role="line"
         id="tspan4302">Shared preference (</tspan></text>
<text
       transform="matrix(1.25,0,0,1.25,803.09,33.56875)"
       style="font-variant:normal;font-weight:normal;font-size:18px;font-family:Arial;-inkscape-font-specification:Arial;writing-mode:lr-tb;fill:#262626;fill-opacity:1;fill-rule:nonzero;stroke:none"
       id="text4304"><tspan
         x="0"
         y="0"
         id="tspan4306">∆<tspan
   style="font-style:italic;font-variant:normal;font-weight:normal;font-stretch:normal;font-family:'Times New Roman';-inkscape-font-specification:'Times New Roman,  Italic'"
   id="tspan4425">v</tspan></tspan></text>
<tspan
       transform="matrix(1.25,0,0,1.25,821.83263,33.56875)"
       style="font-style:italic;font-variant:normal;font-weight:normal;font-stretch:normal;font-size:18px;font-family:Arial;-inkscape-font-specification:'Arial Italic';writing-mode:lr-tb;fill:#262626;fill-opacity:1;fill-rule:nonzero;stroke:none"
       id="tspan4378">v</tspan><text
       transform="matrix(1.25,0,0,1.25,854.35163,33.56875)"
       style="font-variant:normal;font-weight:normal;font-size:18px;font-family:Arial;-inkscape-font-specification:Arial;writing-mode:lr-tb;fill:#262626;fill-opacity:1;fill-rule:nonzero;stroke:none"
       id="text4312"><tspan
         x="0"
         y="0"
         id="tspan4314">0</tspan></text>
<text
       transform="matrix(1.25,0,0,1.25,865.60163,33.56875)"
       style="font-variant:normal;font-weight:normal;font-size:18px;font-family:Arial;-inkscape-font-specification:Arial;writing-mode:lr-tb;fill:#262626;fill-opacity:1;fill-rule:nonzero;stroke:none"
       id="text4316"><tspan
         x="0"
         y="0"
         id="tspan4318">)</tspan></text>
<text
       transform="matrix(1.25,0,0,1.25,602.97375,67.31875)"
       style="font-variant:normal;font-weight:normal;font-size:18px;font-family:Arial;-inkscape-font-specification:Arial;writing-mode:lr-tb;fill:#262626;fill-opacity:1;fill-rule:nonzero;stroke:none"
       id="text4326"><tspan
         x="0 14.001168 24.011707 34.022636 44.033176 53.033176 57.032398 62.033176 72.044106 77.044884 87.055809 93.049812 103.06035 108.06152 118.07206 124.06606 134.077 144.08752 153.08752 163.09845 168.09923"
         y="0"
         sodipodi:role="line"
         id="tspan4328">Opposite preference (</tspan></text>
<text
       xml:space="preserve"
       style="font-style:normal;font-weight:normal;font-size:40px;line-height:125%;font-family:sans-serif;letter-spacing:0px;word-spacing:0px;fill:#000000;fill-opacity:1;stroke:none;stroke-width:1px;stroke-linecap:butt;stroke-linejoin:miter;stroke-opacity:1"
       x="963.59448"
       y="82.656639"
       id="text4431"
       sodipodi:linespacing="125%"><tspan
         sodipodi:role="line"
         id="tspan4433"
         x="963.59448"
         y="82.656639" /></text>
<text
       xml:space="preserve"
       style="font-style:normal;font-weight:normal;font-size:40px;line-height:125%;font-family:sans-serif;letter-spacing:0px;word-spacing:0px;fill:#000000;fill-opacity:1;stroke:none;stroke-width:1px;stroke-linecap:butt;stroke-linejoin:miter;stroke-opacity:1"
       x="-15.034805"
       y="15.545587"
       id="text8517"
       sodipodi:linespacing="125%"><tspan
         sodipodi:role="line"
         id="tspan8519"
         x="-15.034805"
         y="15.545587"
         style="-inkscape-font-specification:Arial;font-family:Arial;font-weight:normal;font-style:normal;font-stretch:normal;font-variant:normal;font-size:45px">a</tspan></text>
<text
       xml:space="preserve"
       style="font-style:normal;font-weight:normal;font-size:32px;line-height:125%;font-family:sans-serif;letter-spacing:0px;word-spacing:0px;fill:#000000;fill-opacity:1;stroke:none;stroke-width:1px;stroke-linecap:butt;stroke-linejoin:miter;stroke-opacity:1"
       x="399.06033"
       y="-340.56354"
       id="text8521"
       sodipodi:linespacing="125%"
       transform="matrix(1.25,0,0,1.25,0,441.25)"><tspan
         sodipodi:role="line"
         id="tspan8523"
         x="399.06033"
         y="-340.56354"
         style="-inkscape-font-specification:Arial;font-family:Arial;font-weight:normal;font-style:normal;font-stretch:normal;font-variant:normal;font-size:36px">b</tspan></text>
</g></svg>