<?xml version="1.0" encoding="utf-8" standalone="no"?>
<!DOCTYPE svg PUBLIC "-//W3C//DTD SVG 1.1//EN"
  "http://www.w3.org/Graphics/SVG/1.1/DTD/svg11.dtd">
<!-- Created with matplotlib (http://matplotlib.org/) -->
<svg height="504pt" version="1.1" viewBox="0 0 720 504" width="720pt" xmlns="http://www.w3.org/2000/svg" xmlns:xlink="http://www.w3.org/1999/xlink">
 <defs>
  <style type="text/css">
*{stroke-linecap:butt;stroke-linejoin:round;}
  </style>
 </defs>
 <g id="figure_1">
  <g id="patch_1">
   <path d="
M0 504
L720 504
L720 0
L0 0
z
" style="fill:#ffffff;"/>
  </g>
  <g id="axes_1">
   <g id="patch_2">
    <path d="
M90 441
L648 441
L648 50.4
L90 50.4
z
" style="fill:#ffffff;"/>
   </g>
   <g id="matplotlib.axis_1">
    <g id="xtick_1">
     <g id="line2d_1">
      <defs>
       <path d="
M0 0
L0 0" id="m849d0bd0d6" style="stroke:#262626;stroke-width:1.6;"/>
      </defs>
      <g>
       <use style="fill:#262626;stroke:#262626;stroke-width:1.6;" x="166.965517241" xlink:href="#m849d0bd0d6" y="441.0"/>
      </g>
     </g>
     <g id="line2d_2">
      <g>
       <use style="fill:#262626;stroke:#262626;stroke-width:1.6;" x="166.965517241" xlink:href="#m849d0bd0d6" y="50.4"/>
      </g>
     </g>
     <g id="text_1">
      <text style="fill:#262626;font-family:Arial;font-size:20.0px;font-style:normal;text-anchor:middle;" transform="rotate(-0.000000, 166.965517, 466.515625)" x="166.965517241" y="466.515625">5</text>
     </g>
    </g>
    <g id="xtick_2">
     <g id="line2d_3">
      <g>
       <use style="fill:#262626;stroke:#262626;stroke-width:1.6;" x="263.172413793" xlink:href="#m849d0bd0d6" y="441.0"/>
      </g>
     </g>
     <g id="line2d_4">
      <g>
       <use style="fill:#262626;stroke:#262626;stroke-width:1.6;" x="263.172413793" xlink:href="#m849d0bd0d6" y="50.4"/>
      </g>
     </g>
     <g id="text_2">
      <text style="fill:#262626;font-family:Arial;font-size:20.0px;font-style:normal;text-anchor:middle;" transform="rotate(-0.000000, 263.172414, 466.515625)" x="263.172413793" y="466.515625">10</text>
     </g>
    </g>
    <g id="xtick_3">
     <g id="line2d_5">
      <g>
       <use style="fill:#262626;stroke:#262626;stroke-width:1.6;" x="359.379310345" xlink:href="#m849d0bd0d6" y="441.0"/>
      </g>
     </g>
     <g id="line2d_6">
      <g>
       <use style="fill:#262626;stroke:#262626;stroke-width:1.6;" x="359.379310345" xlink:href="#m849d0bd0d6" y="50.4"/>
      </g>
     </g>
     <g id="text_3">
      <text style="fill:#262626;font-family:Arial;font-size:20.0px;font-style:normal;text-anchor:middle;" transform="rotate(-0.000000, 359.379310, 466.515625)" x="359.379310345" y="466.515625">15</text>
     </g>
    </g>
    <g id="xtick_4">
     <g id="line2d_7">
      <g>
       <use style="fill:#262626;stroke:#262626;stroke-width:1.6;" x="455.586206897" xlink:href="#m849d0bd0d6" y="441.0"/>
      </g>
     </g>
     <g id="line2d_8">
      <g>
       <use style="fill:#262626;stroke:#262626;stroke-width:1.6;" x="455.586206897" xlink:href="#m849d0bd0d6" y="50.4"/>
      </g>
     </g>
     <g id="text_4">
      <text style="fill:#262626;font-family:Arial;font-size:20.0px;font-style:normal;text-anchor:middle;" transform="rotate(-0.000000, 455.586207, 466.515625)" x="455.586206897" y="466.515625">20</text>
     </g>
    </g>
    <g id="xtick_5">
     <g id="line2d_9">
      <g>
       <use style="fill:#262626;stroke:#262626;stroke-width:1.6;" x="551.793103448" xlink:href="#m849d0bd0d6" y="441.0"/>
      </g>
     </g>
     <g id="line2d_10">
      <g>
       <use style="fill:#262626;stroke:#262626;stroke-width:1.6;" x="551.793103448" xlink:href="#m849d0bd0d6" y="50.4"/>
      </g>
     </g>
     <g id="text_5">
      <text style="fill:#262626;font-family:Arial;font-size:20.0px;font-style:normal;text-anchor:middle;" transform="rotate(-0.000000, 551.793103, 466.515625)" x="551.793103448" y="466.515625">25</text>
     </g>
    </g>
    <g id="xtick_6">
     <g id="line2d_11">
      <g>
       <use style="fill:#262626;stroke:#262626;stroke-width:1.6;" x="648.0" xlink:href="#m849d0bd0d6" y="441.0"/>
      </g>
     </g>
     <g id="line2d_12">
      <g>
       <use style="fill:#262626;stroke:#262626;stroke-width:1.6;" x="648.0" xlink:href="#m849d0bd0d6" y="50.4"/>
      </g>
     </g>
     <g id="text_6">
      <text style="fill:#262626;font-family:Arial;font-size:20.0px;font-style:normal;text-anchor:middle;" transform="rotate(-0.000000, 648.000000, 466.515625)" x="648.0" y="466.515625">30</text>
     </g>
    </g>
    <g id="text_7">
     <text style="fill:#262626;font-family:Arial;font-size:24.0px;font-style:normal;text-anchor:middle;" transform="rotate(-0.000000, 369.000000, 492.669375)" x="369.0" y="492.669375">Trial</text>
    </g>
   </g>
   <g id="matplotlib.axis_2">
    <g id="ytick_1">
     <g id="line2d_13">
      <g>
       <use style="fill:#262626;stroke:#262626;stroke-width:1.6;" x="90.0" xlink:href="#m849d0bd0d6" y="408.45"/>
      </g>
     </g>
     <g id="line2d_14">
      <g>
       <use style="fill:#262626;stroke:#262626;stroke-width:1.6;" x="648.0" xlink:href="#m849d0bd0d6" y="408.45"/>
      </g>
     </g>
     <g id="text_8">
      <text style="fill:#262626;font-family:Arial;font-size:20.0px;font-style:normal;text-anchor:end;" transform="rotate(-0.000000, 78.800000, 413.620312)" x="78.8" y="413.6203125">−2</text>
     </g>
    </g>
    <g id="ytick_2">
     <g id="line2d_15">
      <g>
       <use style="fill:#262626;stroke:#262626;stroke-width:1.6;" x="90.0" xlink:href="#m849d0bd0d6" y="343.35"/>
      </g>
     </g>
     <g id="line2d_16">
      <g>
       <use style="fill:#262626;stroke:#262626;stroke-width:1.6;" x="648.0" xlink:href="#m849d0bd0d6" y="343.35"/>
      </g>
     </g>
     <g id="text_9">
      <text style="fill:#262626;font-family:Arial;font-size:20.0px;font-style:normal;text-anchor:end;" transform="rotate(-0.000000, 78.800000, 348.520312)" x="78.8" y="348.5203125">0</text>
     </g>
    </g>
    <g id="ytick_3">
     <g id="line2d_17">
      <g>
       <use style="fill:#262626;stroke:#262626;stroke-width:1.6;" x="90.0" xlink:href="#m849d0bd0d6" y="278.25"/>
      </g>
     </g>
     <g id="line2d_18">
      <g>
       <use style="fill:#262626;stroke:#262626;stroke-width:1.6;" x="648.0" xlink:href="#m849d0bd0d6" y="278.25"/>
      </g>
     </g>
     <g id="text_10">
      <text style="fill:#262626;font-family:Arial;font-size:20.0px;font-style:normal;text-anchor:end;" transform="rotate(-0.000000, 78.800000, 283.420313)" x="78.8" y="283.4203125">2</text>
     </g>
    </g>
    <g id="ytick_4">
     <g id="line2d_19">
      <g>
       <use style="fill:#262626;stroke:#262626;stroke-width:1.6;" x="90.0" xlink:href="#m849d0bd0d6" y="213.15"/>
      </g>
     </g>
     <g id="line2d_20">
      <g>
       <use style="fill:#262626;stroke:#262626;stroke-width:1.6;" x="648.0" xlink:href="#m849d0bd0d6" y="213.15"/>
      </g>
     </g>
     <g id="text_11">
      <text style="fill:#262626;font-family:Arial;font-size:20.0px;font-style:normal;text-anchor:end;" transform="rotate(-0.000000, 78.800000, 218.320312)" x="78.8" y="218.3203125">4</text>
     </g>
    </g>
    <g id="ytick_5">
     <g id="line2d_21">
      <g>
       <use style="fill:#262626;stroke:#262626;stroke-width:1.6;" x="90.0" xlink:href="#m849d0bd0d6" y="148.05"/>
      </g>
     </g>
     <g id="line2d_22">
      <g>
       <use style="fill:#262626;stroke:#262626;stroke-width:1.6;" x="648.0" xlink:href="#m849d0bd0d6" y="148.05"/>
      </g>
     </g>
     <g id="text_12">
      <text style="fill:#262626;font-family:Arial;font-size:20.0px;font-style:normal;text-anchor:end;" transform="rotate(-0.000000, 78.800000, 153.220313)" x="78.8" y="153.2203125">6</text>
     </g>
    </g>
    <g id="ytick_6">
     <g id="line2d_23">
      <g>
       <use style="fill:#262626;stroke:#262626;stroke-width:1.6;" x="90.0" xlink:href="#m849d0bd0d6" y="82.95"/>
      </g>
     </g>
     <g id="line2d_24">
      <g>
       <use style="fill:#262626;stroke:#262626;stroke-width:1.6;" x="648.0" xlink:href="#m849d0bd0d6" y="82.95"/>
      </g>
     </g>
     <g id="text_13">
      <text style="fill:#262626;font-family:Arial;font-size:20.0px;font-style:normal;text-anchor:end;" transform="rotate(-0.000000, 78.800000, 88.120313)" x="78.8" y="88.1203125">8</text>
     </g>
    </g>
    <g id="text_14">
     <text style="fill:#262626;font-family:Arial;font-size:24.0px;font-style:normal;text-anchor:middle;" transform="rotate(-90.000000, 48.111250, 245.700000)" x="48.11125" y="245.7">% point advantage</text>
    </g>
   </g>
   <g id="line2d_25">
    <path clip-path="url(#p5ea624f557)" d="
M90 108.565
L109.241 285.685
L128.483 243.373
L147.724 307.112
L166.966 279.869
L186.207 317.75
L205.448 298.822
L224.69 324.64
L243.931 310.543
L263.172 329.254
L282.414 318.613
L301.655 332.655
L320.897 324.452
L340.138 335.051
L359.379 328.57
L378.621 336.738
L397.862 331.67
L417.103 338.168
L436.345 334.032
L455.586 339.113
L474.828 335.874
L494.069 339.965
L513.31 337.417
L532.552 340.663
L551.793 338.562
L571.034 341.22
L590.276 339.503
L609.517 341.578
L628.759 340.216
L648 341.907" style="fill:none;stroke:#3b5b92;stroke-linecap:round;stroke-width:4;"/>
   </g>
   <g id="line2d_26">
    <path clip-path="url(#p5ea624f557)" d="
M90 82.9022
L109.241 271.131
L128.483 228.41
L147.724 295.692
L166.966 268.41
L186.207 307.891
L205.448 288.75
L224.69 315.576
L243.931 301.191
L263.172 320.621
L282.414 309.934
L301.655 324.415
L320.897 316.132
L340.138 327.135
L359.379 320.631
L378.621 329.133
L397.862 324.016
L417.103 330.783
L436.345 326.623
L455.586 331.892
L474.828 328.618
L494.069 332.839
L513.31 330.281
L532.552 333.682
L551.793 331.53
L571.034 334.248
L590.276 332.522
L609.517 334.681
L628.759 333.311
L648 335.096" style="fill:none;stroke:#be0119;stroke-linecap:round;stroke-width:4;"/>
   </g>
   <g id="line2d_27">
    <path clip-path="url(#p5ea624f557)" d="
M90 302.062
L109.241 322.084
L128.483 320.072
L147.724 327.106
L166.966 325.716
L186.207 329.515
L205.448 328.69
L224.69 331.235
L243.931 330.471
L263.172 332.497
L282.414 332.046
L301.655 333.607
L320.897 333.168
L340.138 334.211
L359.379 332.939
L378.621 334.673
L397.862 334.465
L417.103 335.165
L436.345 334.862
L455.586 335.363
L474.828 335.153
L494.069 335.553
L513.31 335.449
L532.552 335.831
L551.793 335.692
L571.034 335.987
L590.276 335.912
L609.517 336.122
L628.759 336.076
L648 336.254" style="fill:none;stroke:#dbb40c;stroke-linecap:round;stroke-width:4;"/>
   </g>
   <g id="line2d_28">
    <path clip-path="url(#p5ea624f557)" d="
M90 343.35
L648 343.35" style="fill:none;stroke:#808080;stroke-dasharray:6.000000,6.000000;stroke-dashoffset:0.0;stroke-width:2.8;"/>
   </g>
   <g id="patch_3">
    <path d="
M90 441
L648 441" style="fill:none;stroke:#262626;stroke-linecap:square;stroke-linejoin:miter;stroke-width:1.25;"/>
   </g>
   <g id="patch_4">
    <path d="
M90 441
L90 50.4" style="fill:none;stroke:#262626;stroke-linecap:square;stroke-linejoin:miter;stroke-width:1.25;"/>
   </g>
   <g id="text_15">
    <text style="fill:#262626;font-family:Arial;font-size:34.0px;font-style:normal;text-anchor:middle;" transform="rotate(-0.000000, 369.000000, 25.870000)" x="369.0" y="25.87">Correct feedback probability = 0.7</text>
   </g>
   <g id="legend_1">
    <g id="patch_5">
     <path d="
M130.905 89.1787
L178.905 89.1787
L178.905 72.3787
L130.905 72.3787
z
" style="fill:#be0119;stroke:#be0119;stroke-linejoin:miter;stroke-width:0.48;"/>
    </g>
    <g id="text_16">
     <text style="fill:#262626;font-family:Arial;font-size:24.0px;font-style:normal;text-anchor:start;" transform="rotate(-0.000000, 198.105000, 89.178750)" x="198.105" y="89.17875">Dual influence</text>
    </g>
    <g id="patch_6">
     <path d="
M130.905 123.42
L178.905 123.42
L178.905 106.62
L130.905 106.62
z
" style="fill:#3b5b92;stroke:#3b5b92;stroke-linejoin:miter;stroke-width:0.48;"/>
    </g>
    <g id="text_17">
     <text style="fill:#262626;font-family:Arial;font-size:24.0px;font-style:normal;text-anchor:start;" transform="rotate(-0.000000, 198.105000, 123.420000)" x="198.105" y="123.42">Influenced prior</text>
    </g>
    <g id="patch_7">
     <path d="
M130.905 157.369
L178.905 157.369
L178.905 140.569
L130.905 140.569
z
" style="fill:#dbb40c;stroke:#dbb40c;stroke-linejoin:miter;stroke-width:0.48;"/>
    </g>
    <g id="text_18">
     <text style="fill:#262626;font-family:Arial;font-size:24.0px;font-style:normal;text-anchor:start;" transform="rotate(-0.000000, 198.105000, 157.368750)" x="198.105" y="157.36875">Influenced choice</text>
    </g>
   </g>
  </g>
 </g>
 <defs>
  <clipPath id="p5ea624f557">
   <rect height="390.6" width="558.0" x="90.0" y="50.4"/>
  </clipPath>
 </defs>
</svg>
